<svg xmlns="http://www.w3.org/2000/svg" xmlns:svg="http://www.w3.org/2000/svg" xmlns:xlink="http://www.w3.org/1999/xlink" id="svg3783" width="44" height="36" version="1.1"><defs id="defs3785"><linearGradient id="linearGradient4226"><stop id="stop4228" offset="0" stop-color="#282f36" stop-opacity="1"/><stop id="stop4230" offset="1" stop-color="#303942" stop-opacity="1"/></linearGradient><linearGradient id="linearGradient4232" x1="19" x2="19" y1="1048.362" y2="1086.362" gradientUnits="userSpaceOnUse" xlink:href="#linearGradient4226"/></defs><metadata id="metadata3788"/><g id="layer1" transform="translate(0,-1016.3622)"><g id="g3027" transform="matrix(0,-1,1,0,-1048.3622,1052.3622)"><path id="rect4195" fill="#000" fill-opacity="1" d="M 0 2 L 0 34 L 26.75 34 L 34 34 L 35 34 L 35 33.9375 C 38.953435 33.445413 42 30.090954 42 26 L 42 10 C 42 5.9090462 38.953435 2.5545866 35 2.0625 L 35 2 L 34 2 L 26.75 2 L 0 2 z" opacity=".09" transform="matrix(0,1,-1,0,36,1048.3622)"/><path id="rect4192" fill="#000" fill-opacity="1" d="m 33,1048.3622 -30,0 0,31.9375 0,1.0625 0,1 c 0,3.878 3.1219995,7 6.9999998,7 l 16.0000002,0 c 3.878,0 7,-3.122 7,-7 l 0,-1 0,-1.0625 0,-31.9375 z" opacity=".09"/><path id="rect4155" fill="#000" fill-opacity="1" d="m 32.001111,1048.3622 -27.9999999,0 0,33.5 c 0,0.075 -0.0025,0.1445 0,0.2188 0.117084,3.4966 2.973851,6.2812 6.4999999,6.2812 l 15,0 c 3.526149,0 6.382917,-2.7846 6.5,-6.2812 l 0,-0.2188 0,-33.5 z" opacity=".09"/><path id="rect3028" fill="url(#linearGradient4232)" fill-opacity="1" fill-rule="nonzero" stroke="none" stroke-width="2" d="m 30,1048.3622 -24.0000002,0 0,28 0,5.5 c 0,2.493 2.007,4.5 4.5000002,4.5 l 15,0 c 2.493,0 4.5,-2.007 4.5,-4.5 l 0,-5.5 0,-28 z" color="#000" display="inline" enable-background="accumulate" overflow="visible" visibility="visible" style="marker:none"/><g id="g4220" transform="translate(20.75,-65.5)"><path d="m 10.21875,1141.8622 -0.96875,0 0,5.5 c 0,2.493 -2.007,4.5 -4.5,4.5 l -15,0 c -2.493,0 -4.5,-2.007 -4.5,-4.5 l 0,-5.5 -0.96875,0 0,5.5 c 0,3.0182 2.450523,5.4688 5.46875,5.4688 l 15,0 c 3.018227,0 5.46875,-2.4506 5.46875,-5.4688 l 0,-5.5 z" style="marker:none" id="path3016" fill="#070b0d" fill-opacity="1" fill-rule="nonzero" stroke="none" stroke-width="2" color="#000" display="inline" enable-background="accumulate" overflow="visible" visibility="visible"/><rect id="rect3841" width="28" height="1" x="1113.862" y="-10.25" fill="#070b0d" fill-opacity="1" stroke="#000" stroke-dasharray="none" stroke-linejoin="miter" stroke-miterlimit="4" stroke-opacity="1" stroke-width="0" transform="matrix(0,1,-1,0,0,0)"/><rect id="rect3841-4" width="28" height="1" x="1113.862" y="14.75" fill="#070b0d" fill-opacity="1" stroke="#000" stroke-dasharray="none" stroke-linejoin="miter" stroke-miterlimit="4" stroke-opacity="1" stroke-width="0" transform="matrix(0,1,-1,0,0,0)"/></g><rect id="rect3826" width="1" height="24" x="1051.362" y="-30" fill="#000" fill-opacity=".771" transform="matrix(0,1,-1,0,0,0)"/><rect id="rect3828" width="3.313" height="24" x="1048.362" y="-30" fill="#000e14" fill-opacity=".403" transform="matrix(0,1,-1,0,0,0)"/></g></g></svg>