<svg xmlns="http://www.w3.org/2000/svg" xmlns:svg="http://www.w3.org/2000/svg" xmlns:xlink="http://www.w3.org/1999/xlink" id="svg3864" width="36" height="36" version="1.1"><defs id="defs3866"><linearGradient id="linearGradient3923"><stop id="stop3925" offset="0" stop-color="#fff" stop-opacity="0"/><stop id="stop3927" offset="1" stop-color="#fff" stop-opacity="1"/></linearGradient><linearGradient id="linearGradient3907"><stop id="stop3909" offset="0" stop-color="#59a7e7" stop-opacity=".525"/><stop id="stop3911" offset="1" stop-color="#59a7e7" stop-opacity="0"/></linearGradient><linearGradient id="linearGradient3913" x1="3" x2="6" y1="18" y2="18" gradientUnits="userSpaceOnUse" xlink:href="#linearGradient3907"/><linearGradient id="linearGradient3929" x1="-7" x2="36" y1="33" y2="33" gradientUnits="userSpaceOnUse" xlink:href="#linearGradient3923"/><linearGradient id="linearGradient3923-0"><stop id="stop3925-6" offset="0" stop-color="#fff" stop-opacity="0"/><stop id="stop3927-1" offset="1" stop-color="#fff" stop-opacity="1"/></linearGradient><linearGradient id="linearGradient3946" x1="-7" x2="36" y1="33" y2="33" gradientTransform="translate(0,-33)" gradientUnits="userSpaceOnUse" xlink:href="#linearGradient3923-0"/></defs><metadata id="metadata3869"/><g id="layer1" transform="translate(0,4)"><rect id="rect3787" width="36" height="26" x="0" y="5" fill="#000" fill-opacity=".157" transform="translate(0,-4)"/><rect id="rect3783" width="36" height="1" x="0" y="4" fill="#000" fill-opacity=".745" transform="translate(0,-4)"/><rect id="rect3785" width="36" height="1" x="0" y="31" fill="#000" fill-opacity=".745" transform="translate(0,-4)"/><rect id="rect3781-5" width="3" height="26" x="0" y="1" fill="#5da9e3" fill-opacity="1" ry="0"/><rect id="rect3905" width="5" height="26" x="3" y="5" fill="url(#linearGradient3913)" fill-opacity="1" transform="translate(0,-4)"/><rect id="rect3919" width="1" height="26" x="2" y="5" fill="#73b4e1" fill-opacity="1" transform="translate(0,-4)"/><rect id="rect3921" width="36" height="1" x="0" y="32" fill="url(#linearGradient3929)" fill-opacity="1" opacity=".07" transform="translate(0,-4)"/><rect id="rect3921-6" width="36" height="1" x="0" y="-1" fill="url(#linearGradient3946)" fill-opacity="1" opacity=".07"/></g></svg>