<svg xmlns="http://www.w3.org/2000/svg" xmlns:svg="http://www.w3.org/2000/svg" id="svg3783" width="44" height="36" version="1.1"><metadata id="metadata3788"/><g id="layer1" transform="translate(0,-1016.3622)"><g id="g3027" transform="matrix(0,-1,1,0,-1048.3622,1052.3622)"><g id="g3940" opacity=".25"><rect id="rect3098-0-8-1-0" width="42" height="34" x="1049.362" y="-35" fill="#000" fill-opacity=".157" stroke="#000" stroke-dasharray="none" stroke-linejoin="miter" stroke-miterlimit="4" stroke-opacity="1" stroke-width="0" opacity=".492" ry="5.231" transform="matrix(0,1,-1,0,0,0)"/><rect id="rect3098-0-8-1" width="40" height="32" x="1050.362" y="-34" fill="#000" fill-opacity=".157" stroke="#000" stroke-dasharray="none" stroke-linejoin="miter" stroke-miterlimit="4" stroke-opacity="1" stroke-width="0" opacity=".712" ry="4.923" transform="matrix(0,1,-1,0,0,0)"/><rect id="rect3098-0-8" width="38" height="30" x="1051.362" y="-33" fill="#000" fill-opacity=".157" stroke="#000" stroke-dasharray="none" stroke-linejoin="miter" stroke-miterlimit="4" stroke-opacity="1" stroke-width="0" ry="4.615" transform="matrix(0,1,-1,0,0,0)"/><rect id="rect3098-0" width="36" height="28" x="1052.362" y="-32" fill="#000" fill-opacity=".176" stroke="#000" stroke-dasharray="none" stroke-linejoin="miter" stroke-miterlimit="4" stroke-opacity="1" stroke-width="0" ry="4.308" transform="matrix(0,1,-1,0,0,0)"/></g><rect id="rect3813" width="34" height="26" x="5" y="5" fill="#000" fill-opacity=".157" ry="4" transform="matrix(0,1,-1,0,36,1048.3622)"/><rect id="rect3815" width="32" height="24" x="6" y="6" fill="#fff" fill-opacity="1" ry="3" transform="matrix(0,1,-1,0,36,1048.3622)"/></g></g></svg>