<svg xmlns="http://www.w3.org/2000/svg" xmlns:svg="http://www.w3.org/2000/svg" xmlns:xlink="http://www.w3.org/1999/xlink" id="svg3783" width="44" height="36" version="1.1"><defs id="defs3785"><linearGradient id="linearGradient4226"><stop id="stop4228" offset="0" stop-color="#282f36" stop-opacity="1"/><stop id="stop4230" offset="1" stop-color="#37414b" stop-opacity="1"/></linearGradient><linearGradient id="linearGradient3870" x1="24" x2="24" y1="28" y2="4" gradientUnits="userSpaceOnUse" xlink:href="#linearGradient4226"/></defs><metadata id="metadata3788"/><g id="layer1" transform="translate(0,-1016.3622)"><g id="g3027" transform="matrix(0,-1,1,0,-1048.3622,1052.3622)"><rect id="rect3852" width="44" height="36" x="0" y="0" fill="#000" fill-opacity="1" opacity=".09" ry="8" transform="matrix(0,1,-1,0,36,1048.3622)"/><rect id="rect3854" width="42" height="34" x="1" y="1" fill="#000" fill-opacity="1" opacity=".09" ry="7" transform="matrix(0,1,-1,0,36,1048.3622)"/><rect id="rect3856" width="40" height="32" x="2" y="2" fill="#000" fill-opacity="1" opacity=".09" ry="6" transform="matrix(0,1,-1,0,36,1048.3622)"/><rect id="rect3858" width="38" height="30" x="3" y="3" fill="#070b0d" fill-opacity="1" ry="5" transform="matrix(0,1,-1,0,36,1048.3622)"/><rect id="rect3862" width="36" height="28" x="4" y="4" fill="url(#linearGradient3870)" fill-opacity="1" ry="4" transform="matrix(0,1,-1,0,36,1048.3622)"/><rect id="rect3874" width="36" height="3.575" x="1052.362" y="-7.575" fill="#000e14" fill-opacity=".404" ry="1.787" transform="matrix(0,1,-1,0,0,0)"/><rect id="rect3876" width="36" height="1" x="4" y="28" fill="#070b0d" fill-opacity="1" transform="matrix(0,1,-1,0,36,1048.3622)"/></g></g></svg>