<svg xmlns="http://www.w3.org/2000/svg" xmlns:svg="http://www.w3.org/2000/svg" id="svg2" width="37" height="18" version="1.1"><metadata id="metadata8"/><defs id="defs6"><filter id="filter3867" width="1.272" height="1.439" x="-.136" y="-.219"><feGaussianBlur id="feGaussianBlur3869" stdDeviation="1.645"/></filter><clipPath id="clipPath3915" clipPathUnits="userSpaceOnUse"><path id="path3917" fill="#151516" fill-opacity=".395" stroke="#fff" stroke-dasharray="none" stroke-dashoffset="0" stroke-linejoin="round" stroke-miterlimit="4" stroke-opacity="1" stroke-width="0" d="m -3.8e-6,-2.6e-5 0,18 7,0 c -1.66201,0 -3,-1.338 -3,-3 l 0,-15 -4,0 z m 32.9999998,0 0,15 c 0,1.662 -1.33799,3 -3,3 l 7,0 0,-18 -4,0 z"/></clipPath></defs><g id="layer6" display="inline" transform="translate(-131.827,-1051.173)"><rect id="rect2997" width="29" height="18" x="4" y="0" fill="#151516" fill-opacity="1" stroke="#fff" stroke-dasharray="none" stroke-dashoffset="0" stroke-linejoin="round" stroke-miterlimit="4" stroke-opacity="1" stroke-width="0" clip-path="url(#clipPath3915)" filter="url(#filter3867)" opacity=".5" ry="3" transform="translate(131.827,1051.173)"/><path id="rect3956-3" fill="#303942" fill-opacity="1" stroke="#fff" stroke-dasharray="none" stroke-dashoffset="0" stroke-linejoin="round" stroke-miterlimit="4" stroke-opacity="1" stroke-width="0" d="m 167.827,1051.173 c -2.20914,0 -4,1.7908 -4,4 l 0,-4 4,0 z" display="inline"/><rect id="rect3100" width="2" height="1" x="166.827" y="1051.173" fill="#191c1f" fill-opacity="1" stroke="#fff" stroke-dasharray="none" stroke-dashoffset="0" stroke-linejoin="round" stroke-miterlimit="4" stroke-opacity="1" stroke-width="0"/><path id="rect3956" fill="#303942" fill-opacity="1" stroke="#fff" stroke-dasharray="none" stroke-dashoffset="0" stroke-linejoin="round" stroke-miterlimit="4" stroke-opacity="1" stroke-width="0" d="m 132.827,1051.173 c 2.20914,0 4,1.7908 4,4 l 0,-4 -4,0 z"/><rect id="rect3102" width="2" height="1" x="131.827" y="1051.173" fill="#191c1f" fill-opacity="1" stroke="#fff" stroke-dasharray="none" stroke-dashoffset="0" stroke-linejoin="round" stroke-miterlimit="4" stroke-opacity="1" stroke-width="0"/><path id="path3884" fill="#191c1f" fill-opacity="1" stroke="#fff" stroke-dasharray="none" stroke-dashoffset="0" stroke-linejoin="round" stroke-miterlimit="4" stroke-opacity="1" stroke-width="0" d="m 133.827,1051.173 0,1 c 1.10457,0 2,0.8954 2,2 l 1,0 c 0,-1.6569 -1.34315,-3 -3,-3 z"/><path id="path3884-9" fill="#191c1f" fill-opacity="1" stroke="#fff" stroke-dasharray="none" stroke-dashoffset="0" stroke-linejoin="round" stroke-miterlimit="4" stroke-opacity="1" stroke-width="0" d="m 166.827,1051.173 0,1 c -1.10457,0 -2,0.8954 -2,2 l -1,0 c 0,-1.6569 1.34315,-3 3,-3 z" display="inline"/><path id="rect3987" fill="#191c1f" fill-opacity="1" stroke="#fff" stroke-dasharray="none" stroke-dashoffset="0" stroke-linejoin="round" stroke-miterlimit="4" stroke-opacity="1" stroke-width="0" d="m 135.827,1054.173 0,12 c 0,1.662 1.338,3 3,3 l 23,0 c 1.662,0 3,-1.338 3,-3 l 0,-12 -1,0 0,12 c 0,1.108 -0.892,2 -2,2 l -23,0 c -1.108,0 -2,-0.892 -2,-2 l 0,-12 -1,0 z"/></g></svg>