<svg xmlns="http://www.w3.org/2000/svg" xmlns:svg="http://www.w3.org/2000/svg" id="svg2985" width="14" height="16" version="1.1"><metadata id="metadata2990"/><g id="layer1"><path id="path3774" fill="#000" fill-opacity=".159" d="M 15,9 A 7,7 0 1 1 1,9 7,7 0 1 1 15,9 z" opacity="1" transform="translate(-1,-1)"/><path id="path3769" fill="#0b0c0d" fill-opacity="1" d="M 15,8 A 7,7 0 1 1 1,8 7,7 0 1 1 15,8 z" opacity="1" transform="translate(-1,-1)"/><path id="path3771" fill="#2e3438" fill-opacity="1" d="M 14,8 A 6,6 0 1 1 2,8 6,6 0 1 1 14,8 z" transform="translate(-1,-1)"/><path id="path3785" fill="#0f1113" fill-opacity="1" d="M 10,8 A 2,2 0 1 1 6,8 2,2 0 1 1 10,8 z" transform="translate(-1,-1)"/></g></svg>