<svg xmlns="http://www.w3.org/2000/svg" xmlns:svg="http://www.w3.org/2000/svg" xmlns:xlink="http://www.w3.org/1999/xlink" id="svg2985" width="14" height="16" version="1.1"><defs id="defs2987"><linearGradient id="linearGradient3779" x1="9" x2="9" y1="2" y2="14" gradientUnits="userSpaceOnUse" xlink:href="#linearGradient3808"/><linearGradient id="linearGradient3808"><stop id="stop3811" offset="0" stop-color="#59626e" stop-opacity="1"/><stop id="stop3813" offset="1" stop-color="#3d444e" stop-opacity="1"/></linearGradient><linearGradient id="linearGradient3806-5"><stop id="stop3808-1" offset="0" stop-color="#4c4c4c" stop-opacity=".513"/><stop id="stop3810-7" offset="1" stop-color="#000" stop-opacity=".592"/></linearGradient><linearGradient id="linearGradient3119" x1="8" x2="8" y1="10" y2="8" gradientUnits="userSpaceOnUse" xlink:href="#linearGradient3806-5"/></defs><metadata id="metadata2990"/><g id="layer1"><path id="path3774" fill="#000" fill-opacity=".159" d="M 15,9 A 7,7 0 1 1 1,9 7,7 0 1 1 15,9 z" opacity="1" transform="translate(-1,-1)"/><path id="path3769" fill="#1f2224" fill-opacity="1" d="M 15,8 A 7,7 0 1 1 1,8 7,7 0 1 1 15,8 z" opacity="1" transform="translate(-1,-1)"/><path id="path3771" fill="url(#linearGradient3779)" fill-opacity="1" d="M 14,8 A 6,6 0 1 1 2,8 6,6 0 1 1 14,8 z" transform="translate(-1,-1)"/><path id="path3773" fill="#7b8590" fill-opacity="1" stroke="#fff" stroke-dasharray="none" stroke-dashoffset="0" stroke-linejoin="round" stroke-miterlimit="4" stroke-opacity="1" stroke-width="0" d="M 7,1 C 3.6862915,1 1,3.686292 1,7 1,7.124471 1.0237788,7.252409 1.03125,7.375 1.33851,4.349464 3.8933983,2 7,2 10.106602,2 12.66149,4.349464 12.96875,7.375 12.976221,7.252409 13,7.124471 13,7 13,3.686292 10.313709,1 7,1 z" opacity="1"/><path id="path3785" fill="url(#linearGradient3119)" fill-opacity="1" d="M 10,8 A 2,2 0 1 1 6,8 2,2 0 1 1 10,8 z" transform="translate(-1,-1)"/><path id="path3801" fill="#353e46" fill-opacity="1" stroke="#fff" stroke-dasharray="none" stroke-dashoffset="0" stroke-linejoin="round" stroke-miterlimit="4" stroke-opacity="1" stroke-width="0" d="M 7,5 C 5.89543,5 5,5.895431 5,7 5,8.104569 5.89543,9 7,9 8.104569,9 9,8.104569 9,7 9,5.895431 8.104569,5 7,5 z M 7,6 C 7.552285,6 8,6.447715 8,7 8,7.552285 7.552285,8 7,8 6.447715,8 6,7.552285 6,7 6,6.447715 6.447715,6 7,6 z"/><path id="path3017" fill="#b6cae1" fill-opacity="1" stroke="#fff" stroke-dasharray="none" stroke-dashoffset="0" stroke-linejoin="round" stroke-miterlimit="4" stroke-opacity="1" stroke-width="0" d="M 9,7 A 2,2 0 1 1 5,7 2,2 0 1 1 9,7 z" opacity=".599"/></g></svg>