<svg xmlns="http://www.w3.org/2000/svg" xmlns:svg="http://www.w3.org/2000/svg" id="svg2" width="64" height="11" version="1.1"><metadata id="metadata7"/><g id="layer1" transform="translate(0,-1041.3622)"><path id="rect3809-9" fill="#fff" fill-opacity=".102" d="m 5,1042.3622 c -2.77,0 -5,2.23 -5,5 0,2.77 2.23,5 5,5 l 54,0 c 2.77,0 5,-2.23 5,-5 0,-2.77 -2.23,-5 -5,-5 l -54,0 z m 0,1 54,0 c 2.216,0 4,1.784 4,4 0,2.216 -1.784,4 -4,4 l -54,0 c -2.216,0 -4,-1.784 -4,-4 0,-2.216 1.784,-4 4,-4 z"/><path id="rect3858" fill="#1b1e21" fill-opacity="1" d="m 5,1043.3622 c -1.662,0 -3,1.338 -3,3 0,1.662 1.338,3 3,3 l 54,0 c 1.662,0 3,-1.338 3,-3 0,-1.662 -1.338,-3 -3,-3 l -54,0 z m 0,1 54,0 c 1.108,0 2,0.892 2,2 0,1.108 -0.892,2 -2,2 l -54,0 c -1.108,0 -2,-0.892 -2,-2 0,-1.108 0.892,-2 2,-2 z"/><path id="rect3809" fill="#191b1d" fill-opacity="1" d="m 5,1041.3622 c -2.77,0 -5,2.23 -5,5 0,2.77 2.23,5 5,5 l 54,0 c 2.77,0 5,-2.23 5,-5 0,-2.77 -2.23,-5 -5,-5 l -54,0 z m 0,1 54,0 c 2.216,0 4,1.784 4,4 0,2.216 -1.784,4 -4,4 l -54,0 c -2.216,0 -4,-1.784 -4,-4 0,-2.216 1.784,-4 4,-4 z"/><path id="rect3855" fill="#25292d" fill-opacity="1" d="m 5,1042.3622 c -2.216,0 -4,1.784 -4,4 0,2.216 1.784,4 4,4 l 54,0 c 2.216,0 4,-1.784 4,-4 0,-2.216 -1.784,-4 -4,-4 l -54,0 z m 0,1 54,0 c 1.662,0 3,1.338 3,3 0,1.662 -1.338,3 -3,3 l -54,0 c -1.662,0 -3,-1.338 -3,-3 0,-1.662 1.338,-3 3,-3 z"/></g></svg>