<svg xmlns="http://www.w3.org/2000/svg" xmlns:svg="http://www.w3.org/2000/svg" id="svg2" width="66" height="12" version="1.1"><metadata id="metadata7"/><g id="layer1" transform="translate(0,-1040.3622)"><path id="rect3858-1" fill="#000" fill-opacity="1" d="m 6,1044.3622 c -1.662,0 -3,1.338 -3,3 0,1.662 1.338,3 3,3 l 54,0 c 1.662,0 3,-1.338 3,-3 0,-1.662 -1.338,-3 -3,-3 l -54,0 z m 0,1 54,0 c 1.108,0 2,0.892 2,2 0,1.108 -0.892,2 -2,2 l -54,0 c -1.108,0 -2,-0.892 -2,-2 0,-1.108 0.892,-2 2,-2 z" opacity=".17"/><path id="rect3858" fill="#191b1d" fill-opacity="1" d="m 6,1043.3622 c -1.662,0 -3,1.338 -3,3 0,1.662 1.338,3 3,3 l 54,0 c 1.662,0 3,-1.338 3,-3 0,-1.662 -1.338,-3 -3,-3 l -54,0 z m 0,1 54,0 c 1.108,0 2,0.892 2,2 0,1.108 -0.892,2 -2,2 l -54,0 c -1.108,0 -2,-0.892 -2,-2 0,-1.108 0.892,-2 2,-2 z"/></g></svg>