<svg xmlns="http://www.w3.org/2000/svg" xmlns:svg="http://www.w3.org/2000/svg" id="svg2" width="12" height="66" version="1.1"><metadata id="metadata7"/><g id="layer1" transform="translate(0,-986.3622)"><path id="rect3858" fill="#1b507b" fill-opacity="1" d="m 9,992.3622 c 0,-1.662 -1.338,-3 -3,-3 -1.662,0 -3,1.338 -3,3 l 0,54 c 0,1.662 1.338,3 3,3 1.662,0 3,-1.338 3,-3 l 0,-54 z m -1,0 0,54 c 0,1.108 -0.892,2 -2,2 -1.108,0 -2,-0.892 -2,-2 l 0,-54 c 0,-1.108 0.892,-2 2,-2 1.108,0 2,0.892 2,2 z"/></g></svg>